<?xml version="1.0" encoding="utf-8"?>
<!-- Generator: Adobe Illustrator 24.1.1, SVG Export Plug-In . SVG Version: 6.00 Build 0)  -->
<svg version="1.1" id="Capa_1" xmlns="http://www.w3.org/2000/svg" xmlns:xlink="http://www.w3.org/1999/xlink" x="0px" y="0px"
	 viewBox="0 0 60 60" style="enable-background:new 0 0 60 60;" xml:space="preserve">
<style type="text/css">
	.st0{fill:#EFEFEF;}
</style>
<path class="st0" d="M30,4.2C15.8,4.2,4.2,15.8,4.2,30S15.8,55.8,30,55.8c14.3,0,25.8-11.5,25.8-25.8S44.3,4.2,30,4.2z M22.4,34.5
	c0.4,0.7,0.9,1.3,1.4,1.9c1.7,1.7,4,2.7,6.4,2.7s4.7-0.9,6.4-2.7c0.6-0.6,1.1-1.2,1.4-1.9h6.7c-0.7,2.4-2,4.5-3.8,6.3
	c-2.9,2.9-6.7,4.5-10.8,4.5c-4.1,0-7.9-1.6-10.8-4.5c-1.8-1.8-3-3.9-3.8-6.3c-0.4-1.5-0.7-3-0.7-4.5c0-1.6,0.2-3.1,0.7-4.5
	c0.7-2.3,2-4.5,3.8-6.3c2.9-2.9,6.7-4.5,10.8-4.5c4.1,0,7.9,1.6,10.8,4.5c1.7,1.7,3,3.9,3.8,6.3h-6.7c-0.4-0.7-0.9-1.3-1.4-1.9
	c-1.7-1.7-4-2.7-6.4-2.7s-4.7,0.9-6.4,2.7c-0.6,0.6-1.1,1.2-1.4,1.9c-0.8,1.4-1.2,2.9-1.2,4.5S21.6,33.2,22.4,34.5z"/>
</svg>
