<?xml version="1.0" encoding="utf-8"?>
<!-- Generator: Adobe Illustrator 24.1.1, SVG Export Plug-In . SVG Version: 6.00 Build 0)  -->
<svg version="1.1" id="Layer_1" xmlns="http://www.w3.org/2000/svg" xmlns:xlink="http://www.w3.org/1999/xlink" x="0px" y="0px"
	 viewBox="0 0 50 50" style="enable-background:new 0 0 50 50;" xml:space="preserve">
<style type="text/css">
	.st0{fill:#EFEFEF;}
</style>
<path class="st0" d="M45,12.9c-0.5-1.8-1.9-3.2-3.7-3.7C38,8.3,25,8.3,25,8.3s-13,0-16.3,0.9C6.9,9.7,5.5,11.1,5,12.9
	C4.2,16.1,4.2,25,4.2,25s0,8.9,0.9,12.1c0.5,1.8,1.9,3.2,3.7,3.7C12,41.7,25,41.7,25,41.7s13,0,16.3-0.9c1.8-0.5,3.2-1.9,3.7-3.7
	c0.9-3.3,0.9-12.1,0.9-12.1S45.8,16.1,45,12.9z M20.8,32.2V17.8L33.3,25L20.8,32.2z"/>
</svg>
